<svg version="1.1" preserveAspectRatio="none" xmlns="http://www.w3.org/2000/svg" width="500" height="500" viewBox="0 0 500 500"><rect width="100%" height="100%" fill="#F7F7F7" fill-opacity="1"/><svg viewBox="267.5237 301.9231 364.9527 325.5121" width="333" height="297.01254244728153" x="83.5px" y="101.4937px" xmlns="http://www.w3.org/2000/svg" xmlns:xlink="http://www.w3.org/1999/xlink" preserveAspectRatio="none"><defs></defs><style>.companyName {fill:#2B2B2B;fill-opacity:1;}.icon1 {fill:#2B2B2B;fill-opacity:1;}.icon2 {fill:#59C65B;fill-opacity:1;}.icon3 {fill:#6D6D6D;fill-opacity:1;}.icon3-str {stroke:#6D6D6D;stroke-opacity:1;}</style><defs></defs><g opacity="1" transform="rotate(0 358.7619 301.9231)">
<svg width="182.4764" height="195.5121" x="358.7619" y="301.9231" version="1.1" preserveAspectRatio="none" viewBox="44 39.999996185302734 112 120.00100708007812">
  <g transform="matrix(1 0 0 1 0 0)"><g><g><defs><path d="M48.863 72.897h102.274a3 3 0 0 1 2.993 2.991l-7.481 79.252a3 3 0 0 1-2.993 2.991H56.344a3 3 0 0 1-2.993-2.991L45.87 75.888a3 3 0 0 1 2.993-2.991z" data-color="1" id="id-IptOCySn2"></path></defs><use class="icon1" xlink:href="#id-IptOCySn2"></use></g><g><defs><path d="M131.157 72.897h19.98a3 3 0 0 1 2.993 2.991l-7.481 79.252a3 3 0 0 1-2.993 2.991h-12.498a3 3 0 0 1-2.993-2.991V75.888a3 3 0 0 1 2.992-2.991z" data-color="2" id="id-IptOCySn3"></path></defs><use class="icon2" xlink:href="#id-IptOCySn3"></use></g><g><defs><path d="M64.089 68.706a1.87 1.87 0 0 0 1.87-1.869c0-12.737 10.037-23.099 22.374-23.099 3.329 0 6.487.76 9.329 2.112-6.006 4.921-9.867 12.497-9.867 20.987a1.87 1.87 0 0 0 3.74 0c0-7.83 3.797-14.758 9.586-18.937 5.789 4.179 9.586 11.107 9.586 18.937a1.87 1.87 0 0 0 3.74 0c0-8.49-3.86-16.066-9.867-20.987 2.842-1.352 6-2.112 9.328-2.112 12.337 0 22.374 10.362 22.374 23.099a1.87 1.87 0 0 0 3.74 0C140.025 52.039 128.31 40 113.91 40a25.409 25.409 0 0 0-12.788 3.451A25.41 25.41 0 0 0 88.333 40c-14.399 0-26.115 12.039-26.115 26.837a1.871 1.871 0 0 0 1.871 1.869z" data-color="3" id="id-IptOCySn4"></path></defs><use class="icon3" xlink:href="#id-IptOCySn4"></use></g><g><defs><path d="M151.137 71.028H48.863A4.867 4.867 0 0 0 44 75.888c0 .059.003.117.008.176l7.474 79.175a4.869 4.869 0 0 0 4.862 4.762h87.311a4.865 4.865 0 0 0 4.863-4.762l7.474-79.175c.005-.058.008-.117.008-.176 0-2.68-2.182-4.86-4.863-4.86zM55.222 155.14c0-.059-.003-.117-.008-.176l-7.471-79.143a1.139 1.139 0 0 1 1.12-1.055h77.568a4.825 4.825 0 0 0-.136 1.121v79.252c0 .387.05.761.136 1.122H56.344a1.136 1.136 0 0 1-1.122-1.121zm89.564-.175a2.054 2.054 0 0 0-.008.176c0 .608-.514 1.122-1.122 1.122h-12.498a1.137 1.137 0 0 1-1.122-1.122V75.888c0-.608.514-1.121 1.122-1.121h8.417l-2.912 45.113a1.87 1.87 0 0 0 3.733.241l2.928-45.354h7.814c.586 0 1.084.477 1.12 1.055l-7.472 79.143z" data-color="3" id="id-IptOCySn5"></path></defs><use class="icon3" xlink:href="#id-IptOCySn5"></use></g><g><defs><path d="M67.128 78.878h-7.383a1.87 1.87 0 1 0 0 3.738h7.383a1.87 1.87 0 1 0 0-3.738z" data-color="3" id="id-IptOCySn6"></path></defs><use class="icon3" xlink:href="#id-IptOCySn6"></use></g><g><defs><path d="M116.279 78.878h-7.383a1.87 1.87 0 1 0 0 3.738h7.383a1.87 1.87 0 1 0 0-3.738z" data-color="3" id="id-IptOCySn7"></path></defs><use class="icon3" xlink:href="#id-IptOCySn7"></use></g></g></g>
</svg>
</g><g opacity="1" transform="rotate(0 267.5237 537.4352)">
<svg width="364.9527" height="90" x="267.5237" y="537.4352" version="1.1" preserveAspectRatio="none" viewBox="1.8 -25.44 103.16000000000001 25.44">
  <g transform="matrix(1 0 0 1 0 0)" class="companyName"><path id="id-D6z1nYkh6" d="M7.52-10.84L7.52-4.20L15.68-4.20L15.68 0L1.80 0L1.80-25.44L15.36-25.44L15.36-21.24L7.52-21.24L7.52-15.04L14.20-15.04L14.20-10.84L7.52-10.84Z M29.20-10L18.40-10L18.40-13.92L29.20-13.92L29.20-10Z M48.08-21.04L48.08-16.52L42.32-16.52L42.32-20.52Q42.32-21.52 41.28-21.52L41.28-21.52L39.64-21.52Q38.56-21.52 38.56-20.52L38.56-20.52L38.56-4.92Q38.56-4.36 38.80-4.14Q39.04-3.92 39.64-3.92L39.64-3.92L41.28-3.92Q41.84-3.92 42.08-4.14Q42.32-4.36 42.32-4.92L42.32-4.92L42.32-8.80L48.08-8.80L48.08-4.40Q48.08 0 43 0L43 0L37.88 0Q32.84 0 32.84-4.40L32.84-4.40L32.84-21.04Q32.84-25.44 37.88-25.44L37.88-25.44L43-25.44Q48.08-25.44 48.08-21.04L48.08-21.04Z M69.20 0L63.44 0L62.56-4.60L56.76-4.60L55.88 0L50.24 0L56-25.44L63.28-25.44L69.20 0ZM59.64-19.52L57.56-8.76L61.72-8.76L59.64-19.52Z M78.64-9.52L77.64-9.52L77.64 0L71.96 0L71.96-25.44L82.44-25.44Q87.48-25.44 87.48-21.04L87.48-21.04L87.48-13.92Q87.48-10.40 84.28-9.68L84.28-9.68L88.76 0L82.64 0L78.64-9.52ZM80.72-21.24L77.64-21.24L77.64-13.56L80.72-13.56Q81.28-13.56 81.52-13.78Q81.76-14 81.76-14.52L81.76-14.52L81.76-20.24Q81.76-21.24 80.72-21.24L80.72-21.24Z M89.92-25.44L104.96-25.44L104.96-21.24L100.28-21.24L100.28 0L94.56 0L94.56-21.24L89.92-21.24L89.92-25.44Z"/></g>
</svg>
</g></svg></svg>